# AST/ASF file generated using VICON BodyLanguage
# -----------------------------------------------
:version 1.10
:name VICON
:units
  mass 1.0
  length 0.45
  angle deg
:documentation
   .ast/.asf automatically generated from VICON data using
   VICON BodyBuilder and BodyLanguage model FoxedUp or BRILLIANT.MOD
:root
   order TX TY TZ RX RY RZ
   axis XYZ
   position 0 0 0  
   orientation 0 0 0 
:bonedata
  begin
     id 1 
     name lhipjoint
     direction 0.70531 -0.63749 0.310071 
     length 2.59589 
     axis 0 0 0  XYZ
  end
  begin
     id 2 
     name lfemur
     direction 0.34202 -0.939693 0  
     length 6.19797  
     axis 0 0 20  XYZ
    dof rx ry rz
    limits (-160.0 20.0)
           (-70.0 70.0)
           (-60.0 70.0)
  end
  begin
     id 3 
     name ltibia
     direction 0.34202 -0.939693 0   
     length 7.80054   
     axis 0 0 20   XYZ
    dof rx
    limits (-10.0 170.0)
  end
  begin
     id 4 
     name lfoot
     direction 0.0828572 -0.227648 0.970212   
     length 1.88124   
     axis -90 7.62852e-016 20   XYZ
    dof rx rz
    limits (-45.0 90.0)
           (-70.0 20.0)
  end
  begin
     id 5 
     name ltoes
     direction 1.53544e-011 -4.219e-011 1   
     length 0.948015   
     axis -90 7.62852e-016 20   XYZ
    dof rx
    limits (-90.0 20.0)
  end
  begin
     id 6 
     name rhipjoint
     direction -0.730062 -0.614543 0.29891   
     length 2.69282  
     axis 0 0 0  XYZ 
  end
  begin
     id 7 
     name rfemur
     direction -0.34202 -0.939693 0   
     length 5.86298   
     axis 0 0 -20   XYZ
    dof rx ry rz
    limits (-160.0 20.0)
           (-70.0 70.0)
           (-70.0 60.0)
  end
  begin
     id 8 
     name rtibia
     direction -0.34202 -0.939693 0   
     length 7.72374   
     axis 0 0 -20   XYZ
    dof rx
    limits (-10.0 170.0)
 end
 begin
     id 9 
     name rfoot
     direction -0.0967421 -0.265797 0.959163   
     length 2.02368  
     axis -90 -7.62852e-016 -20   XYZ
    dof rx rz
    limits (-45.0 90.0)
           (-20.0 70.0)
  end
  begin
     id 10 
     name rtoes
     direction -1.53524e-011 -4.21768e-011 1   
     length 1.01373   
     axis -90 -7.62852e-016 -20   XYZ
    dof rx
    limits (-90.0 20.0)
  end
  begin
     id 11 
     name lowerback
     direction 0.00561702 0.992801 -0.119643   
     length 2.02816   
     axis 0 0 0   XYZ
    dof rx ry rz
    limits (-20.0 45.0)
           (-30.0 30.0)
           (-30.0 30.0)
  end
  begin
     id 12 
     name upperback
     direction 0.00155544 0.995735 -0.0922509   
     length 2.02265   
     axis 0 0 0   XYZ
    dof rx ry rz
    limits (-20.0 45.0)
           (-30.0 30.0)
           (-30.0 30.0)
  end
  begin
     id 13 
     name thorax
     direction -0.000937535 0.999317 -0.0369292   
     length 2.04823   
     axis 0 0 0   XYZ
    dof rx ry rz
    limits (-20.0 45.0)
           (-30.0 30.0)
           (-30.0 30.0)
  end
  begin
     id 14 
     name lowerneck
     direction -0.0813151 0.981659 0.172436   
     length 1.8875   
     axis 0 0 0   XYZ
    dof rx ry rz
    limits (-20.0 45.0)
           (-30.0 30.0)
           (-30.0 30.0)
  end
  begin
     id 15 
     name upperneck
     direction 0.119359 0.955672 -0.269157   
     length 1.92801   
     axis 0 0 0   XYZ
    dof rx ry rz
    limits (-20.0 45.0)
           (-30.0 30.0)
           (-30.0 30.0)
  end
  begin
     id 16
     name head
     direction 0.0421007 0.992672 -0.113268  
     length 1.95809  
     axis 0 0 0   XYZ
    dof rx ry rz
    limits (-20.0 45.0)
           (-30.0 30.0)
           (-30.0 30.0)
  end
  begin
     id 17 
     name lclavicle
     direction 0.944093 0.32865 -0.0260136  
     length 3.84992  
     axis 0 0 0   XYZ
    dof ry rz
    limits (-20.0 10.0)
           (0.0 20.0)
  end
  begin
     id 18 
     name lhumerus
     direction 1 -4.48979e-011 -1.27712e-029   
     length 5.53593   
     axis 180 -30 -90   XYZ
    dof rx ry rz
    limits (-60.0 90.0)
           (-90.0 90.0)
           (-90.0 90.0)
  end
  begin
     id 19
     name lradius
     direction 1 -4.48966e-011 1.00051e-028   
     length 3.13345   
     axis 180 -30 -90   XYZ
    dof rx
    limits (-10.0 170.0)
  end
  begin
     id 20
     name lwrist
     direction 1 -4.4896e-011 2.56952e-028   
     length 1.56673   
     axis -5.12785e-016 90 90   XYZ
    dof ry
    limits (-180.0 0.0)
 end
  begin
     id 21 
     name lhand
     direction 1 -4.48934e-011 5.13905e-028   
     length 0.713374   
     axis -3.27915e-016 90 90   XYZ
    dof rx rz
    limits (-90.0 90.0)
           (-45.0 45.0)
  end
  begin
     id 22 
     name lfingers
     direction 1 -4.48973e-011 1.02781e-027   
     length 0.575141   
     axis -6.5583e-016 90 90   XYZ
    dof rx
    limits (0.0 90.0)
  end
  begin
     id 23
     name lthumb
     direction 0.707107 -6.34883e-011 0.707107   
     length 0.82579   
     axis -90 45 2.85299e-015   XYZ
    dof rx rz
    limits (-45.0 45.0)
           (-45.0 45.0)
  end
  begin
     id 24 
     name rclavicle
     direction -0.936895 0.34884 0.0232243   
     length 3.53304  
     axis 0 0 0   XYZ 
    dof ry rz
    limits (-10.0 20.0)
           (-20.0 0.0)
  end
  begin
     id 25 
     name rhumerus
     direction -1 -4.48965e-011 1.05514e-027  
     length 5.4685   
     axis 180 30 90   XYZ
    dof rx ry rz
    limits (-90.0 60.0)
           (-90.0 90.0)
           (-90.0 90.0)
  end
  begin
     id 26 
     name rradius
     direction -1 -4.48964e-011 -1.1079e-027   
     length 3.22411   
     axis 180 30 90   XYZ
    dof rx
    limits (-10.0 170.0)
  end
  begin
     id 27 
     name rwrist
     direction -1 -4.48973e-011 2.56952e-028   
     length 1.61206   
     axis -5.12785e-016 -90 -90   XYZ
    dof ry
    limits (-180.0 0.0)
  end
  begin
     id 28
     name rhand
     direction -1 -4.48957e-011 5.13905e-028   
     length 0.74528   
     axis -3.27915e-016 -90 -90   XYZ
    dof rx rz
    limits (-90.0 90.0)
           (-45.0 45.0)
  end
  begin
     id 29
     name rfingers
     direction -1 -4.4901e-011 1.02781e-027   
     length 0.600864   
     axis -6.5583e-016 -90 -90   XYZ
    dof rx
    limits (0.0 90.0)
  end
  begin
     id 30
     name rthumb
     direction -0.707107 -6.34972e-011 0.707107   
     length 0.862724   
     axis -90 -45 -2.85299e-015   XYZ
    dof rx rz
    limits (-45.0 45.0)
           (-45.0 45.0)
  end
:hierarchy
  begin
    root lhipjoint rhipjoint lowerback
    lhipjoint lfemur
    lfemur ltibia
    ltibia lfoot
    lfoot ltoes
    rhipjoint rfemur
    rfemur rtibia
    rtibia rfoot
    rfoot rtoes
    lowerback upperback
    upperback thorax
    thorax lowerneck lclavicle rclavicle
    lowerneck upperneck
    upperneck head
    lclavicle lhumerus
    lhumerus lradius
    lradius lwrist
    lwrist lhand lthumb
    lhand lfingers
    rclavicle rhumerus
    rhumerus rradius
    rradius rwrist
    rwrist rhand rthumb
    rhand rfingers
  end

#!OML:ASF G:\Work\Work\Patient Classification 1\Liu\Session 1\Liu.ASF
:FULLY-SPECIFIED
:DEGREES
337
root 9.73453 17.0453 14.9387 2.35874 -0.80965 3.29641
lowerback 0.844482 -0.812849 -1.61148
upperback 0.837043 -1.09008 -0.699824
thorax 0.399922 -0.551106 0.191704
lowerneck -17.7029 -3.91735 -11.5538
upperneck 22.2824 -4.47633 9.08179
head 10.5456 -1.98358 4.56767
rclavicle 1.71576e-014 2.18663e-015
rhumerus -42.5612 15.4415 -90.1411
rradius 43.5447
rwrist -11.6908
rhand -16.1462 17.8785
rfingers 7.12502
rthumb 10.0591 -11.8611
lclavicle 1.71576e-014 2.18663e-015
lhumerus -30.5819 -9.66608 86.6493
lradius 25.3316
lwrist -5.37819
lhand -12.3635 32.4443
lfingers 7.12502
lthumb 13.7067 61.9729
rfemur -30.5716 -7.44142 18.1933
rtibia 67.9164
rfoot -9.01281 -14.8472
rtoes -8.9202
lfemur -11.8449 -6.21723 -31.2937
ltibia 29.1406
lfoot -18.8728 2.29747
ltoes -6.95886
338
root 9.71662 17.0218 15.0803 2.58969 -0.531609 2.6488
lowerback 1.18467 -0.886346 -1.16425
upperback 0.619943 -1.19412 -0.451164
thorax -0.0152269 -0.59894 0.2045
lowerneck -19.3119 -4.12149 -10.6942
upperneck 23.6472 -4.61494 7.93569
head 11.3285 -2.08632 4.00536
rclavicle -2.27981e-014 -6.75868e-015
rhumerus -43.1032 15.5058 -90.3301
rradius 43.7748
rwrist -11.8537
rhand -16.005 17.7297
rfingers 7.12502
rthumb 10.1954 -12.0032
lclavicle -2.27981e-014 -6.75868e-015
lhumerus -29.9665 -10.8686 86.8485
lradius 25.8078
lwrist -4.08983
lhand -12.6902 32.3313
lfingers 7.12502
lthumb 13.3918 61.8808
rfemur -31.7928 -6.90849 19.3107
rtibia 66.326
rfoot -9.80882 -14.8474
rtoes -9.05505
lfemur -11.5796 -6.3548 -30.5559
ltibia 29.1997
lfoot -19.2786 2.15392
ltoes -7.29436
339
root 9.71981 17.0022 15.2888 2.39427 0.0260429 3.48237
lowerback 1.11534 -1.09388 -1.96561
upperback 0.726306 -1.47552 -0.648999
thorax 0.151155 -0.743023 0.450477
lowerneck -17.7621 -3.86881 -11.4993
upperneck 22.1801 -4.43656 9.17982
head 10.5154 -1.947 4.59764
rclavicle -1.14301e-015 -6.16232e-015
rhumerus -43.4938 15.622 -90.4927
rradius 43.9518
rwrist -11.9525
rhand -16.0106 17.8087
rfingers 7.12502
rthumb 10.19 -11.9245
lclavicle -1.14301e-015 -6.16232e-015
lhumerus -29.407 -11.8788 86.9903
lradius 26.4752
lwrist -2.81612
lhand -12.8692 32.4513
lfingers 7.12502
lthumb 13.2193 62.0122
rfemur -32.0641 -7.2802 18.3501
rtibia 64.6574
rfoot -10.4558 -13.9134
rtoes -12.7524
lfemur -10.3023 -6.46129 -31.6244
ltibia 28.9971
lfoot -19.7348 1.74504
ltoes -7.48442
340
root 9.71879 16.9926 15.4761 2.43568 0.399971 3.89501
lowerback 1.1373 -1.25722 -2.45987
upperback 0.746451 -1.69778 -0.676299
thorax 0.17824 -0.856128 0.700692
lowerneck -19.7637 -4.03859 -10.6255
upperneck 23.6848 -4.51129 8.07771
head 11.4204 -2.0068 4.06414
rclavicle 1.2101e-014 -2.18663e-015
rhumerus -43.7609 16.0241 -90.7064
rradius 43.9938
rwrist -12.0885
rhand -16.3669 18.175
rfingers 7.12502
rthumb 9.84616 -11.5748
lclavicle 1.2101e-014 -2.18663e-015
lhumerus -28.7473 -12.5006 87.0273
lradius 27.1349
lwrist -2.29366
lhand -12.7432 32.5669
lfingers 7.12502
lthumb 13.3408 62.1198
rfemur -32.7465 -7.23733 17.9699
rtibia 62.7311
rfoot -10.6806 -13.5083
rtoes -15.6566
lfemur -9.31714 -6.53673 -32.1399
ltibia 28.543
lfoot -19.9824 1.37733
ltoes -6.44555
341
root 9.71302 16.9847 15.6624 2.42615 0.82269 4.18567
lowerback 1.32589 -1.4418 -2.9093
upperback 0.765993 -1.95424 -0.666154
thorax 0.116089 -0.985277 0.968828
lowerneck -16.9192 -3.58722 -12.3864
upperneck 20.9328 -4.15833 10.574
head 9.92293 -1.74433 5.26561
rclavicle 8.21229e-015 1.41137e-014
rhumerus -44.1446 16.4587 -90.9764
rradius 44.1745
rwrist -12.0871
rhand -16.8106 18.5106
rfingers 7.12502
rthumb 9.41808 -11.259
lclavicle 8.21229e-015 1.41137e-014
lhumerus -28.0835 -12.9409 86.9537
lradius 27.7785
lwrist -2.27389
lhand -13.1226 31.6725
lfingers 7.12502
lthumb 12.975 61.249
rfemur -33.1785 -7.17507 17.6971
rtibia 60.5614
rfoot -11.1503 -13.0848
rtoes -15.9078
lfemur -8.12079 -6.55769 -32.4848
ltibia 27.7534
lfoot -20.0601 0.946028
ltoes -5.08016
342
root 9.70031 16.9757 15.8511 2.40314 1.25736 4.12985
lowerback 1.48231 -1.59468 -3.04115
upperback 0.791601 -2.16469 -0.571328
thorax 0.0714568 -1.09073 1.14565
lowerneck -20.1672 -4.30104 -10.9642
upperneck 23.487 -4.82606 8.46175
head 11.4803 -2.12216 4.20985
rclavicle -1.10077e-014 -7.55382e-015
rhumerus -44.5966 16.6544 -91.1734
rradius 44.5151
rwrist -11.9433
rhand -17.0248 18.6379
rfingers 7.12502
rthumb 9.21137 -11.1409
lclavicle -1.10077e-014 -7.55382e-015
lhumerus -27.5463 -13.6134 86.9467
lradius 28.5342
lwrist -1.79702
lhand -13.7315 31.0598
lfingers 7.12502
lthumb 12.388 60.6727
rfemur -33.3592 -6.94775 17.8002
rtibia 58.0678
rfoot -11.7962 -12.7155
rtoes -15.6186
lfemur -6.94084 -6.47541 -32.4083
ltibia 27.0803
lfoot -20.1178 0.423865
ltoes -5.00728
343
root 9.68594 16.9715 16.0388 2.52565 1.64928 3.93575
lowerback 1.39814 -1.67632 -2.96521
upperback 0.772608 -2.26969 -0.480302
thorax 0.104271 -1.14344 1.19502
lowerneck -18.0406 -3.94497 -11.6792
upperneck 21.3829 -4.53214 9.65388
head 10.3077 -1.93786 4.76566
rclavicle 1.22501e-014 0
rhumerus -44.9519 16.6047 -91.3201
rradius 44.7345
rwrist -11.9952
rhand -16.9029 18.3983
rfingers 7.12502
rthumb 9.32907 -11.3753
lclavicle 1.22501e-014 0
lhumerus -27.0139 -14.7635 87.0124
lradius 29.3417
lwrist -0.6367
lhand -13.587 31.946
lfingers 7.12502
lthumb 12.5273 61.5505
rfemur -33.6367 -6.53786 18.0548
rtibia 55.2722
rfoot -12.0779 -12.6932
rtoes -16.0905
lfemur -5.97848 -6.4202 -32.1472
ltibia 26.4049
lfoot -20.1191 0.182184
ltoes -6.31657
344
root 9.68155 16.9609 16.2305 2.68351 2.08316 4.26231
lowerback 1.12337 -1.79948 -3.28387
upperback 0.842651 -2.4246 -0.561929
thorax 0.346513 -1.22601 1.27914
lowerneck -17.9849 -4.07944 -11.6323
upperneck 21.2156 -4.73678 9.67303
head 10.262 -2.02594 4.72953
rclavicle 1.85864e-014 -1.33186e-014
rhumerus -45.0786 16.6356 -91.4727
rradius 44.7603
rwrist -12.1579
rhand -16.7097 18.1605
rfingers 7.12502
rthumb 9.51542 -11.6047
lclavicle 1.85864e-014 -1.33186e-014
lhumerus -26.2278 -15.7504 86.91
lradius 30.066
lwrist 0.126342
lhand -13.1348 32.5612
lfingers 7.12502
lthumb 12.9632 62.1385
rfemur -33.8236 -6.38866 17.6103
rtibia 52.4041
rfoot -12.5069 -12.2927
rtoes -16.5473
lfemur -4.96025 -6.42926 -32.4973
ltibia 25.5499
lfoot -20.169 0.0709858
ltoes -6.62181
345
root 9.68207 16.9415 16.4167 2.85848 2.5434 4.57211
lowerback 0.94496 -1.9791 -3.55599
upperback 0.937375 -2.65558 -0.626224
thorax 0.563978 -1.347 1.35631
lowerneck -20.6758 -4.54209 -10.7504
upperneck 23.1363 -5.15758 8.44214
head 11.478 -2.24025 4.09975
rclavicle -3.85145e-015 -9.54166e-015
rhumerus -45.1677 16.8324 -91.6484
rradius 44.722
rwrist -12.2089
rhand -16.7684 18.3639
rfingers 7.12502
rthumb 9.45885 -11.4039
lclavicle -3.85145e-015 -9.54166e-015
lhumerus -25.2867 -16.5048 86.7354
lradius 30.5796
lwrist 0.617341
lhand -13.1939 32.4954
lfingers 7.12502
lthumb 12.9063 62.0763
rfemur -33.9522 -6.29832 17.1103
rtibia 49.4884
rfoot -13.3976 -11.5764
rtoes -16.6449
lfemur -3.86749 -6.45848 -32.8475
ltibia 24.5772
lfoot -20.3373 -0.457081
ltoes -3.97618
346
root 9.68187 16.924 16.6066 2.91037 3.18823 4.8981
lowerback 1.06547 -2.17772 -3.83555
upperback 0.899596 -2.92827 -0.688221
thorax 0.48242 -1.48279 1.45413
lowerneck -18.1611 -4.19931 -12.0216
upperneck 20.9417 -4.8921 10.226
head 10.242 -2.06039 4.96922
rclavicle 3.94588e-014 -1.37161e-014
rhumerus -45.6063 16.9096 -91.8344
rradius 44.7422
rwrist -12.094
rhand -16.9184 18.4617
rfingers 7.12502
rthumb 9.31411 -11.3126
lclavicle 3.94588e-014 -1.37161e-014
lhumerus -24.5615 -17.363 86.7002
lradius 30.9481
lwrist 1.32795
lhand -13.5359 32.5487
lfingers 7.12502
lthumb 12.5766 62.1502
rfemur -33.8509 -6.30186 16.5163
rtibia 46.4995
rfoot -14.2352 -10.9875
rtoes -16.9353
lfemur -2.50883 -6.41015 -33.1908
ltibia 23.5203
lfoot -20.306 -1.3713
ltoes -0.717893
347
root 9.65779 16.9096 16.805 3.08512 3.30485 5.08921
lowerback 0.856131 -2.17265 -4.31384
upperback 0.881239 -2.91407 -0.667398
thorax 0.605643 -1.48044 1.73286
lowerneck -18.0231 -4.32228 -12.124
upperneck 20.7134 -5.08348 10.4133
head 10.1674 -2.13785 5.02082
rclavicle 2.21148e-015 1.19271e-015
rhumerus -45.9345 16.7756 -91.9456
rradius 44.6349
rwrist -11.716
rhand -17.1839 18.9372
rfingers 7.12502
rthumb 9.05785 -10.8483
lclavicle 2.21148e-015 1.19271e-015
lhumerus -23.8321 -18.0609 86.5671
lradius 31.6552
lwrist 2.40192
lhand -13.5562 32.7123
lfingers 7.12502
lthumb 12.557 62.315
rfemur -33.9251 -5.14047 16.1097
rtibia 43.3596
rfoot -14.6325 -11.331
rtoes -17.5442
lfemur -1.3969 -6.07722 -33.2795
ltibia 22.4033
lfoot -20.1582 -1.77264
ltoes 0.485408
348
root 9.63728 16.8983 16.9892 3.4596 3.38131 5.10729
lowerback 0.455961 -2.20862 -4.56416
upperback 0.972489 -2.938 -0.603751
thorax 0.941596 -1.50237 1.91726
lowerneck -21.0905 -4.83144 -10.8991
upperneck 22.6981 -5.52649 8.73298
head 11.4495 -2.37104 4.16004
rclavicle -3.35698e-014 -4.57205e-015
rhumerus -45.8323 16.7936 -92.0193
rradius 44.4939
rwrist -11.4743
rhand -17.3034 19.6896
rfingers 7.12502
rthumb 8.94256 -10.1009
lclavicle -3.35698e-014 -4.57205e-015
lhumerus -22.9122 -18.4705 86.2437
lradius 32.5301
lwrist 3.18702
lhand -13.7263 32.6552
lfingers 7.12502
lthumb 12.393 62.2678
rfemur -34.1544 -3.86874 15.8115
rtibia 40.0693
rfoot -14.8837 -11.8374
rtoes -18.7843
lfemur -0.543086 -5.83895 -33.1901
ltibia 21.2358
lfoot -19.9725 -1.84967
ltoes 1.36544
349
root 9.62606 16.8934 17.1784 3.78691 3.54513 5.22469
lowerback 0.124761 -2.28838 -4.76258
upperback 1.04956 -3.02228 -0.602522
thorax 1.22305 -1.55315 2.01082
lowerneck -21.4871 -4.82115 -10.6168
upperneck 22.327 -5.49127 8.5558
head 11.3665 -2.34056 4.03937
rclavicle -1.39149e-014 1.59028e-015
rhumerus -45.7311 16.8894 -92.1112
rradius 44.4678
rwrist -11.5656
rhand -16.9488 19.7016
rfingers 7.12502
rthumb 9.28471 -10.0739
lclavicle -1.39149e-014 1.59028e-015
lhumerus -22.0415 -18.9449 85.9551
lradius 32.9023
lwrist 2.97227
lhand -14.3229 32.1358
lfingers 7.12502
lthumb 11.8177 61.7824
rfemur -34.2356 -2.62718 15.1699
rtibia 36.697
rfoot -15.2792 -11.9594
rtoes -19.0733
lfemur 0.420678 -5.63924 -33.251
ltibia 20.1746
lfoot -19.9064 -2.05805
ltoes 2.88662
350
root 9.6167 16.8872 17.3683 4.08088 3.91884 5.47042
lowerback 0.0983726 -2.36581 -4.98128
upperback 0.839084 -3.12911 -0.676919
thorax 1.03668 -1.60045 2.05895
lowerneck -20.8648 -4.87122 -10.3556
upperneck 21.7558 -5.62994 8.36596
head 11.0352 -2.41552 3.89029
rclavicle 5.31749e-015 1.88845e-014
rhumerus -46.1876 16.5618 -92.2241
rradius 44.4327
rwrist -11.5096
rhand -16.6592 19.4746
rfingers 7.12502
rthumb 9.56421 -10.2883
lclavicle 5.31749e-015 1.88845e-014
lhumerus -21.5869 -19.6679 85.8759
lradius 33.0827
lwrist 2.95545
lhand -14.669 31.6889
lfingers 7.12502
lthumb 11.4839 61.3544
rfemur -34.2741 -1.3796 14.2023
rtibia 33.4645
rfoot -15.633 -12.1826
rtoes -18.2113
lfemur 1.60258 -5.55852 -33.4406
ltibia 18.8879
lfoot -19.6812 -2.09567
ltoes 2.64889
351
root 9.60325 16.8756 17.556 4.39165 4.35709 5.54861
lowerback 0.128806 -2.45167 -5.08886
upperback 0.567789 -3.25439 -0.670682
thorax 0.756039 -1.65288 2.1324
lowerneck -20.1202 -4.93755 -10.5462
upperneck 21.2622 -5.77496 8.6127
head 10.743 -2.48323 3.98429
rclavicle -1.95057e-014 6.16232e-015
rhumerus -46.8191 16.1304 -92.3097
rradius 44.3093
rwrist -11.0815
rhand -16.8839 19.7912
rfingers 7.12502
rthumb 9.34733 -9.98154
lclavicle -1.95057e-014 6.16232e-015
lhumerus -21.2524 -20.234 85.862
lradius 33.5133
lwrist 3.45685
lhand -14.72 31.7352
lfingers 7.12502
lthumb 11.4348 61.4034
rfemur -34.1156 0.0840512 13.3383
rtibia 30.0436
rfoot -16.0393 -12.9718
rtoes -17.1856
lfemur 2.87572 -5.53396 -33.4049
ltibia 17.3698
lfoot -19.2947 -2.08221
ltoes 2.0443
